<svg width="79" height="79" viewBox="0 0 79 79" fill="none" xmlns="http://www.w3.org/2000/svg">
<path d="M55.9583 36.2083H30.9746L41.8371 25.3787C42.4569 24.7589 42.8051 23.9182 42.8051 23.0416C42.8051 22.1651 42.4569 21.3244 41.8371 20.7046C41.2173 20.0847 40.3766 19.7365 39.5 19.7365C38.6234 19.7365 37.7828 20.0847 37.1629 20.7046L20.7046 37.1629C20.4049 37.4759 20.17 37.8451 20.0133 38.2491C19.6841 39.0505 19.6841 39.9494 20.0133 40.7508C20.17 41.1549 20.4049 41.524 20.7046 41.8371L37.1629 58.2954C37.4689 58.6039 37.833 58.8488 38.2341 59.0159C38.6352 59.183 39.0655 59.2691 39.5 59.2691C39.9345 59.2691 40.3648 59.183 40.7659 59.0159C41.167 58.8488 41.5311 58.6039 41.8371 58.2954C42.1456 57.9894 42.3905 57.6253 42.5576 57.2242C42.7247 56.8231 42.8108 56.3929 42.8108 55.9583C42.8108 55.5238 42.7247 55.0935 42.5576 54.6924C42.3905 54.2913 42.1456 53.9272 41.8371 53.6212L30.9746 42.7916H55.9583C56.8313 42.7916 57.6686 42.4448 58.2859 41.8275C58.9032 41.2102 59.25 40.373 59.25 39.5C59.25 38.627 58.9032 37.7897 58.2859 37.1724C57.6686 36.5551 56.8313 36.2083 55.9583 36.2083Z" fill="white"/>
</svg>
