<svg width="79" height="79" viewBox="0 0 79 79" fill="none" xmlns="http://www.w3.org/2000/svg">
<path d="M23.0417 36.2083H48.0254L37.1629 25.3787C36.5431 24.7589 36.1949 23.9182 36.1949 23.0416C36.1949 22.1651 36.5431 21.3244 37.1629 20.7046C37.7827 20.0847 38.6234 19.7365 39.5 19.7365C40.3766 19.7365 41.2172 20.0847 41.8371 20.7046L58.2954 37.1629C58.5951 37.4759 58.83 37.8451 58.9867 38.2491C59.3159 39.0505 59.3159 39.9494 58.9867 40.7508C58.83 41.1549 58.5951 41.524 58.2954 41.8371L41.8371 58.2954C41.5311 58.6039 41.167 58.8488 40.7659 59.0159C40.3648 59.183 39.9345 59.2691 39.5 59.2691C39.0655 59.2691 38.6352 59.183 38.2341 59.0159C37.833 58.8488 37.4689 58.6039 37.1629 58.2954C36.8544 57.9894 36.6095 57.6253 36.4424 57.2242C36.2753 56.8231 36.1892 56.3929 36.1892 55.9583C36.1892 55.5238 36.2753 55.0935 36.4424 54.6924C36.6095 54.2913 36.8544 53.9272 37.1629 53.6212L48.0254 42.7916H23.0417C22.1687 42.7916 21.3314 42.4448 20.7141 41.8275C20.0968 41.2102 19.75 40.373 19.75 39.5C19.75 38.627 20.0968 37.7897 20.7141 37.1724C21.3314 36.5551 22.1687 36.2083 23.0417 36.2083Z" fill="white"/>
</svg>
