<svg width="52" height="52" viewBox="0 0 52 52" fill="none" xmlns="http://www.w3.org/2000/svg">
<path d="M34.0383 27.5384C34.2356 27.3323 34.3902 27.0893 34.4933 26.8234C34.71 26.2959 34.71 25.7042 34.4933 25.1767C34.3902 24.9108 34.2356 24.6678 34.0383 24.4617L27.5383 17.9617C27.1303 17.5537 26.577 17.3245 26 17.3245C25.423 17.3245 24.8697 17.5537 24.4617 17.9617C24.0537 18.3697 23.8245 18.9231 23.8245 19.5C23.8245 20.077 24.0537 20.6304 24.4617 21.0384L27.2783 23.8334H19.5C18.9254 23.8334 18.3743 24.0617 17.9679 24.468C17.5616 24.8743 17.3333 25.4254 17.3333 26C17.3333 26.5747 17.5616 27.1258 17.9679 27.5321C18.3743 27.9384 18.9254 28.1667 19.5 28.1667H27.2783L24.4617 30.9617C24.2586 31.1631 24.0974 31.4028 23.9874 31.6668C23.8774 31.9308 23.8208 32.214 23.8208 32.5C23.8208 32.7861 23.8774 33.0693 23.9874 33.3333C24.0974 33.5973 24.2586 33.837 24.4617 34.0384C24.6631 34.2415 24.9027 34.4026 25.1667 34.5126C25.4308 34.6226 25.714 34.6793 26 34.6793C26.286 34.6793 26.5692 34.6226 26.8332 34.5126C27.0973 34.4026 27.3369 34.2415 27.5383 34.0384L34.0383 27.5384ZM47.6667 26C47.6667 21.7148 46.3959 17.5258 44.0152 13.9627C41.6344 10.3996 38.2505 7.62256 34.2915 5.98266C30.3324 4.34276 25.976 3.91369 21.773 4.7497C17.5701 5.58572 13.7095 7.64927 10.6793 10.6794C7.64921 13.7095 5.58566 17.5702 4.74965 21.7731C3.91364 25.976 4.34271 30.3325 5.98261 34.2915C7.62251 38.2506 10.3996 41.6345 13.9626 44.0152C17.5257 46.396 21.7147 47.6667 26 47.6667C31.7464 47.6667 37.2574 45.384 41.3206 41.3207C45.3839 37.2574 47.6667 31.7464 47.6667 26ZM8.66666 26C8.66666 22.5718 9.68325 19.2206 11.5879 16.3702C13.4925 13.5197 16.1996 11.2981 19.3668 9.98614C22.5341 8.67422 26.0192 8.33096 29.3816 8.99977C32.7439 9.66858 35.8324 11.3194 38.2565 13.7435C40.6806 16.1676 42.3315 19.2561 43.0003 22.6185C43.6691 25.9808 43.3258 29.466 42.0139 32.6332C40.702 35.8005 38.4803 38.5076 35.6299 40.4122C32.7794 42.3168 29.4282 43.3334 26 43.3334C21.4029 43.3334 16.9941 41.5072 13.7435 38.2566C10.4928 35.0059 8.66666 30.5971 8.66666 26Z" fill="white"/>
</svg>
